<?xml version="1.0" encoding="iso-8859-1"?>
<!-- Generator: Adobe Illustrator 19.0.0, SVG Export Plug-In . SVG Version: 6.00 Build 0)  -->
<svg version="1.1" id="Layer_1" xmlns="http://www.w3.org/2000/svg" xmlns:xlink="http://www.w3.org/1999/xlink" x="0px" y="0px"
	 viewBox="0 0 512.001 512.001" style="enable-background:new 0 0 512.001 512.001;" xml:space="preserve">
<g>
	<path style="fill:#2A2A2C;" d="M319.419,323.366c-1.086-2.21-3.095-3.826-5.485-4.413c-3.403-0.836-7.438-1.586-11.709-2.379
		c-13.458-2.502-31.891-5.926-42.278-14.718c-2.214-1.874-5.243-2.462-7.995-1.548l-1.714,0.567
		c-2.443,0.809-4.374,2.704-5.231,5.13c-0.858,2.428-0.543,5.116,0.85,7.28c0.049,0.075,4.918,7.679,9.087,17.15
		c4.865,11.055,6.809,20.338,5.33,25.468c-1.735,6.026-6.541,10.372-11.628,14.971c-6.72,6.078-15.083,13.642-14.664,25.992
		c0.153,4.485,3.833,8.042,8.32,8.042h38.874c3.295,0,6.279-1.944,7.612-4.956l30.771-69.548
		C320.555,328.154,320.505,325.577,319.419,323.366z"/>
	<path style="fill:#2A2A2C;" d="M169.372,349.821l-16.617-45.403c-1.074-2.937-3.705-5.024-6.809-5.402
		c-3.099-0.379-6.159,1.013-7.909,3.606c-18.261,27.051-40.053,57.232-44.914,60.915c-9.423,7.139-24.422,25.75-26.102,27.849
		c-1.999,2.499-2.389,5.923-1.002,8.808c1.386,2.885,4.303,4.719,7.503,4.719h40.88c2.105,0,4.132-0.798,5.673-2.232l47.151-43.905
		C169.678,356.493,170.524,352.964,169.372,349.821z"/>
</g>
<path style="fill:#56555B;" d="M511.698,352.779c-1.426-10.796-7.13-14.768-12.646-18.61c-6.964-4.851-17.488-12.181-30.883-43.026
	c-20.503-47.216-46.106-54.521-64.801-59.853c-4.159-1.187-7.763-2.215-10.733-3.552c-2.236-2.002-5.474-12.409-7.845-20.034
	c-5.135-16.505-12.169-39.111-27.329-58.619c-18.1-23.29-44.028-36.984-77.066-40.699c-65.81-7.397-111.508,18.213-138.26,41.001
	c-13.529,11.525-23.635,23.396-30.615,32.881c-1.942-7.847-3.936-13.174-4.158-13.76c-1.384-3.641-5.106-5.835-8.964-5.281
	c-26.491,3.802-40.768,42.981-44.857,56.2c-29.075,15.049-28.857,56.827-27.858,71.238C11.42,303.302,1.64,329.982,0.48,333.251
	c-0.744,2.095-0.619,4.4,0.346,6.402C8.347,355.247,29.851,359.949,42,361.364c17.58,2.05,36.185-0.071,48.543-5.531
	c10.223-4.516,36.334-24.104,50.494-34.987l18.974,51.844c-13.42,11.035-14.884,21.758-15.015,23.072
	c-0.233,2.34,0.535,4.67,2.111,6.412c1.578,1.744,3.821,2.738,6.173,2.738h36.5c2.293,0,4.487-0.947,6.059-2.616
	c20.108-21.345,15.346-77.494,12.447-100.211l29.786-2.275c9.906,23.619,40.36,29.279,61.107,33.135
	c4.031,0.749,7.84,1.457,10.782,2.18c6.751,1.658,10.992,10.275,11.557,17.54c0.36,4.643-0.657,10.19-4.594,11.834
	c-21.886,9.147-20.799,31.634-20.741,32.586c0.262,4.397,3.906,7.828,8.309,7.828h41.714c2.8,0,5.414-1.41,6.955-3.748
	c13.536-20.574,21.401-36.269,24.755-49.394c4.524-17.712,0.868-31.449-10.865-40.829c-8.301-6.637-15.284-21.3-14.649-30.766
	c0.079-1.172,0.265-2.17,0.559-2.988c5.473,5.541,15.301,21.286,22.753,33.225c18.344,29.39,39.138,62.701,60.852,71.868
	c24.167,10.204,49.153,9.655,63.651-1.397C509.117,374.096,513.195,364.116,511.698,352.779z"/>
<path style="fill:#2A2A2C;" d="M511.698,352.779c-1.426-10.796-7.13-14.768-12.646-18.61c-6.964-4.851-17.488-12.181-30.883-43.026
	c-20.503-47.216-46.106-54.521-64.801-59.853c-4.159-1.187-7.763-2.215-10.733-3.552c-2.236-2.002-5.474-12.409-7.845-20.034
	c-5.135-16.505-12.169-39.111-27.329-58.619c-18.1-23.29-44.028-36.984-77.066-40.699c-13.657-1.535-26.435-1.631-38.371-0.644
	c2.235,0.179,4.49,0.386,6.775,0.644c33.038,3.715,58.966,17.408,77.066,40.699c15.16,19.509,22.194,42.113,27.329,58.619
	c2.372,7.624,5.611,18.031,7.845,20.034c2.97,1.336,6.574,2.364,10.733,3.552c18.695,5.333,44.298,12.638,64.801,59.853
	c13.395,30.845,23.919,38.175,30.883,43.026c5.515,3.842,11.218,7.813,12.646,18.61c1.498,11.336-2.58,21.317-11.482,28.101
	c-4.13,3.149-9.114,5.441-14.685,6.88c18.176,3.847,35.259,1.522,46.281-6.88C509.117,374.096,513.195,364.116,511.698,352.779z"/>
<path style="fill:#8A8990;" d="M499.052,334.17c-6.964-4.851-17.488-12.181-30.883-43.026
	c-20.503-47.216-46.106-54.521-64.801-59.853c-3.193-0.911-6.052-1.732-8.555-2.667c-1.982,1.96-3.935,4.148-5.851,6.592
	l-34.45,43.687c5.643,6.592,14.404,20.62,21.2,31.508c18.344,29.39,39.138,62.701,60.852,71.868
	c24.167,10.204,49.153,9.655,63.651-1.397c8.902-6.785,12.979-16.765,11.482-28.101C510.27,341.983,504.567,338.012,499.052,334.17z
	"/>
<path style="fill:#56555B;" d="M511.698,352.779c-1.426-10.796-7.13-14.768-12.646-18.61c-6.964-4.851-17.488-12.181-30.883-43.026
	c-20.503-47.216-46.106-54.521-64.801-59.853c-0.865-0.246-1.699-0.486-2.514-0.724c-0.383-0.111-0.756-0.224-1.127-0.335
	c-0.47-0.14-0.934-0.282-1.386-0.422c-0.414-0.129-0.827-0.26-1.227-0.39c-0.417-0.137-0.821-0.277-1.222-0.417
	c-0.361-0.125-0.733-0.25-1.079-0.38l0,0c-1.982,1.96-3.935,4.148-5.851,6.592l-1.129,1.431c15.82,6.641,33.658,19.77,48.739,54.498
	c13.395,30.845,23.919,38.175,30.883,43.026c5.515,3.842,11.218,7.813,12.646,18.61c1.498,11.336-2.58,21.317-11.482,28.101
	c-4.13,3.149-9.114,5.441-14.685,6.88c0,0,0,0,0.001,0c5.668,1.2,11.228,1.798,16.533,1.8c0.032,0,0.065,0,0.098-0.001
	c1.032-0.001,2.056-0.024,3.067-0.07c0.012-0.001,0.026-0.001,0.039-0.001c1.005-0.047,1.998-0.118,2.979-0.209
	c0.084-0.008,0.168-0.018,0.252-0.026c0.938-0.091,1.866-0.201,2.78-0.332c0.034-0.004,0.069-0.009,0.103-0.013
	c0.927-0.135,1.839-0.294,2.741-0.471c0.129-0.026,0.255-0.052,0.384-0.079c0.845-0.172,1.679-0.361,2.5-0.569
	c0.049-0.012,0.098-0.023,0.147-0.036c0.848-0.219,1.678-0.462,2.499-0.721c0.154-0.049,0.306-0.1,0.46-0.15
	c0.765-0.251,1.521-0.515,2.259-0.8c0.049-0.019,0.1-0.036,0.149-0.055c0.768-0.301,1.517-0.625,2.254-0.963
	c0.164-0.075,0.327-0.153,0.491-0.231c0.7-0.333,1.389-0.678,2.058-1.046c0.033-0.018,0.068-0.034,0.101-0.053
	c0.69-0.382,1.357-0.788,2.013-1.208c0.159-0.101,0.316-0.204,0.473-0.307c0.65-0.43,1.289-0.871,1.902-1.34
	C509.117,374.096,513.195,364.116,511.698,352.779z"/>
<g>
	<path style="fill:#2A2A2C;" d="M52.889,227.407c-1.44-0.532-2.999-0.657-4.505-0.357l-3.683,0.73
		c-1.886,0.374-3.596,1.382-4.808,2.875c-18.946,23.325-13.971,63.203-13.751,64.887c0.527,4.023,3.876,7.078,7.93,7.237
		c0.138,0.006,13.933,0.588,30.321,4.974c14.586,3.904,34.102,11.675,44.246,26.526c1.272,1.86,3.243,3.127,5.464,3.509
		c0.468,0.081,0.941,0.12,1.411,0.12c1.753,0,3.475-0.555,4.912-1.603c6.68-4.881,12.426-9.159,20.613-15.461
		C93.4,245.174,54.551,228.022,52.889,227.407z"/>
	<path style="fill:#2A2A2C;" d="M403.368,231.29c-4.159-1.187-7.763-2.215-10.733-3.552c-0.42-0.376-0.876-1.05-1.354-1.946
		l-38.529,51.389l0.209,0.001c2.663,2.696,6.359,7.814,10.308,13.727l42.355-56.493c0.504-0.672,0.888-1.395,1.161-2.144
		C405.623,231.934,404.482,231.609,403.368,231.29z"/>
	<path style="fill:#2A2A2C;" d="M426.617,240.089l-53.888,65.547c1.025,1.634,2.025,3.236,2.984,4.773
		c2.066,3.309,4.163,6.668,6.288,10.036c0.28-0.26,0.548-0.535,0.797-0.839l57.448-69.878
		C435.67,245.655,431.094,242.534,426.617,240.089z"/>
	<path style="fill:#2A2A2C;" d="M395.352,340.843c3.349,4.857,6.752,9.547,10.203,13.947l57.98-73.461
		c-2.961-5.802-6.004-10.892-9.097-15.348L395.352,340.843z"/>
</g>
<path style="fill:#0A0A0A;" d="M61.707,287.508c-5.354,0-9.711-4.348-9.711-9.693c0-5.345,4.357-9.692,9.711-9.692
	s9.711,4.348,9.711,9.692C71.418,283.159,67.063,287.508,61.707,287.508z"/>
<path style="fill:#2A2A2C;" d="M422.13,372.793c4.585,4.014,9.23,7.187,13.919,9.25l48.795-61.113
	c-2.92-3.747-6.082-8.537-9.471-14.82L422.13,372.793z"/>
<path d="M17.788,309.209l-5.986-0.472c-6.48,11.22-10.595,22.465-11.322,24.514c-0.744,2.095-0.619,4.4,0.346,6.402
	c4.899,10.158,15.732,15.692,26.047,18.709c1.375-1.644,2.618-3.714,3.595-6.326c6.484-12.56,7.66-23.063,3.495-31.216
	C29.03,311.162,18.923,309.381,17.788,309.209z"/>
<g>
</g>
<g>
</g>
<g>
</g>
<g>
</g>
<g>
</g>
<g>
</g>
<g>
</g>
<g>
</g>
<g>
</g>
<g>
</g>
<g>
</g>
<g>
</g>
<g>
</g>
<g>
</g>
<g>
</g>
</svg>
